<svg xmlns="http://www.w3.org/2000/svg" version="1.0" viewBox="0 0 1601 1902">
    <defs/>
    <path d="M759 1.6c-32.9 1.6-50.3 6-65.3 16.8a149 149 0 00-30.4 32.7A637.2 637.2 0 00594 196.8l-4.3 14.7-1.2 4-11.2.3c-14.1.3-25.3-1.3-55.7-8.4a484.4 484.4 0 00-35.6-7.1c-35.8-4.8-74 5.3-117.3 30.8a538.1 538.1 0 00-52.2 35.5 343.4 343.4 0 00-44.4 44.2 213.3 213.3 0 00-27.1 47.7 36.1 36.1 0 01-3.4 7.1c-.6.7-4.9 2.4-9.6 3.9a395 395 0 00-43.6 18 37.3 37.3 0 00-19.9 26c-.6 3.4-1.5 4.6-6.2 8-9 6.5-22.7 21.6-31.2 34.6-11 16.5-15.7 26.4-74.6 156.1-36.7 80.9-52.2 116.1-53.7 122-3.9 15.4-1 26.7 9.3 36.2 13.2 12.3 34.4 14.8 54.3 6.6 16.6-6.9 42-26.3 66.1-50.5a349.4 349.4 0 0047.3-57.7c5.4-8 10-14.7 10.4-14.7 1.9-.2 21.8 32.8 30.8 51l4.7 9.6.6 21.9c2.2 70.3 10.7 95.7 58.4 175.1 8.9 15 16.3 27.4 16.3 27.6 0 .2-3.7.7-8.3 1-42.8 3.3-90 26.8-125.3 62.2-61.6 61.9-77.4 149.6-44.8 249.8 12.4 38.2 27.3 69.6 68.9 145.7a1215 1215 0 0147.9 95.5 540.7 540.7 0 0139.6 264c-2.4 22.4-2.6 42.2-.5 51.8a56.6 56.6 0 0028.3 38.5c7.3 3.6 8 3.7 18.1 3.7 9.6 0 11.2-.3 16.8-2.9 5.9-2.7 14.3-10.1 14.3-12.6 0-1.7 1.9-1.1 5.3 1.4a91 91 0 0025.5 11.8 79 79 0 0036.2 0c39.4-12.7 55.7-60.8 43.9-129.2-3.7-21-8.2-37.8-23.8-87.2-16.6-52.7-22.8-79.7-26.2-113.3a586.5 586.5 0 010-75c1.2-11.9 4.8-36.6 5.5-37.2.2-.2 3.9 4.7 8.3 10.9a419.4 419.4 0 0077.7 83.2 432.2 432.2 0 00198.2 90 344 344 0 0077.4 6c30.2 0 36.6-.3 51.5-2.3 53.8-7.2 87.8-20.8 137.3-54.8 48.5-33.4 80.5-62.9 104.9-96.8 7.8-11 15.2-22.6 34.1-54 24.8-41.2 38.3-60.8 54.1-78.5l4-4.5-3.9 11.3a516 516 0 00-20 90.7c-3.7 29.2-4.2 44.4-3.5 97.5.8 53.4.3 64.3-3.6 85a401.7 401.7 0 01-25 80.1 1065.5 1065.5 0 01-55.9 107.5c-16.7 28-21.3 40.1-21.3 55.9 0 11.7 2 18.3 8.3 26.6a43.4 43.4 0 0035 17.6c13.8.8 27-3.3 36.5-11l2.9-2.4 4.4 7.1a66.5 66.5 0 0019.3 21.5c22.3 14.9 47.6 8.6 63.3-15.6 9.4-14.5 14.6-31.3 26.2-83.8 14.9-67.6 22.6-91.7 41.4-130 19-38.7 40.2-69.8 97.1-143 34.1-43.9 46.6-60.4 60.6-80.5 47.5-68.3 72.2-128.1 78.3-189.9a409 409 0 00-.5-64.6 277 277 0 00-61.2-145.2l-4.4-5.3 6-7.3c20-24.6 34.9-54.6 47.1-95.1a415.7 415.7 0 0017.4-152.6l-.6-6.5 9.5 9.6c17.3 17.5 30.5 24.4 47.2 24.3 7.2 0 10-.4 14.2-2.3 11.3-5 17.1-15.7 16-29.6-.3-3.8-9.1-45-19.6-91.5l-25.6-115c-14.8-68.2-22.4-91.9-36.2-113-16-24.4-40.4-39.3-62-37.7-15.3 1.1-28.4 11-37 28.1-1.3 2.6-2.8 4.5-3.2 4-.4-.5-2-4-3.6-7.8a86.4 86.4 0 00-29.8-36.9 85.7 85.7 0 00-41.1-12c-3.5-.2-4.1-.6-4.7-3.2a375.8 375.8 0 00-10.4-39 226.8 226.8 0 00-54.4-90.5 160.8 160.8 0 00-105.5-48c-7.1-.5-31.3-1-53.7-1H1073v-4.6c0-14.5-15.7-92-25.7-126.4-7.9-27.4-13.4-37.5-24.3-44.8-7-4.7-12.8-6.8-35-12.2A846 846 0 00853 3.5C835.5 2 775.3.8 759 1.6zm11 208c9.6.8 32.4 3.3 50.5 5.4 95.4 11.4 166.4 15.6 283 17 75.1.9 76.1 1 96 6.6 32.2 9 62.7 33.4 85 67.7a289 289 0 0123 47.7c3.4 9.7 11.7 40.1 11.1 40.8-.2.1-13.8.7-30.3 1.2-51.3 1.7-102.7 7-115.8 12-2.1.8-2.5.5-3.5-2.6a45.1 45.1 0 00-16.3-17.2c-13.3-8-53.8-22.8-82.2-30a473 473 0 00-126-15.6c-70.2-.1-120.7 9.8-195 38.2a227.9 227.9 0 01-69.5 18.1c-4.7.6-9 .7-11.5.1a63 63 0 00-11.1-1c-16.6 0-33.6-4.5-71.8-19a507.2 507.2 0 00-147.1-35.2 730.4 730.4 0 00-85 .1 566 566 0 00-77.9 12.7c-5.4 1.4-10 2.3-10.3 2.1a31 31 0 013.2-7.6c15.4-30.6 38.5-55.3 78.3-83.8a287.4 287.4 0 0177.6-41.8c16.6-5.4 28.7-7.5 44-7.5 14.7 0 24.2 1.5 51.3 8 34.2 8.1 36.6 8.5 57.3 8.4 22.4 0 30.2-1.5 70.1-12.9a681 681 0 0138.7-10.1c22.3-4.5 46.6-5 84.2-1.8zM418.5 359c58.5 3.1 102.8 13 165.3 36.9 37.7 14.5 53.6 18.2 79.7 18.6 34.8.6 49.5-2.4 94.9-19.4a492.2 492.2 0 01377.6 1.6c10.7 4.9 14.3 7.7 17.6 13.6 2.9 5.2 2.9 5.3 2.8 21.2-.4 60.2-24.4 139.6-56.7 188-34.4 51.4-78.7 76.2-152.7 85.1a355.5 355.5 0 01-71.5 0c-26.4-3.8-48.1-10-68-19.5-53-25.3-86.1-64.7-98.5-117.2-5.1-21.8-5.5-27.4-5.5-78.2 0-44.2-.1-48-1.7-49.1-1.4-1.1-3.7-.9-12.5.6-12.5 2.3-27.2 2-41.6-.8-6.9-1.3-9-1.4-10.2-.4-1.3 1.1-1.5 7.8-1.2 48.4.2 49.1.1 51.8-4.4 74.6a158.4 158.4 0 01-43.9 83c-31.8 32.2-72 51.2-123.5 58.6a355.6 355.6 0 01-71.5 0c-71.7-8.7-114.9-31.7-149.2-79.7-32.7-45.7-57.6-123.6-60.5-189-1-23.4 1.5-29.5 15.3-36.6 7.9-4.1 24.9-10.6 44.4-16.9A485.9 485.9 0 01418.5 359zm940.8 54.4c20.2 5.6 35.6 22.4 42.7 46.6a69 69 0 004 10.7l1.9 3.2-8.8 21.3c-4.8 11.7-9.6 23.7-10.6 26.5-1.1 2.9-2.2 5.3-2.6 5.3-.3 0-1-4.6-1.4-10.2a74.4 74.4 0 00-7.2-29.7 55 55 0 00-34.8-23.6c-10.9-2.3-28.6-1.8-73.1 2-66.5 5.8-97.4 9.2-100.8 11.3-.5.2-.6-1-.3-2.9 1.5-8.8 3-24.8 3.6-39.4l.6-16 4-.3a1090.8 1090.8 0 01147-6.7c24 .2 31.2.6 35.8 1.9zm116.2 28a79.1 79.1 0 0127.1 24.7c12.1 18.3 19.2 40 31.3 95.4a16657 16657 0 0026.2 116.5 2868 2868 0 0121.6 100.1c.5 5.9.3 6.8-2 9.5-2.4 2.7-3 2.9-9.9 2.9-6.1 0-8.2-.5-13.1-3-12.1-6.1-25.3-19.4-41.4-41.8a366 366 0 01-46.2-86.9c-9.3-24.4-15.7-37.2-18.8-37.6-1.1-.2-2.8.5-3.8 1.4-1.4 1.5-1.6 2.9-1 9.8.3 4.5 1.3 11.7 2.2 16.1 4.5 23.1 23.2 63.8 43.9 95.3l7.4 11.3.1 34.2c0 41.2-1.7 63.2-7.2 94-7.9 44.1-24.8 90.6-42.6 117.4-5 7.5-16.1 21.3-17.2 21.3-.3 0-5.1-4.1-10.6-9.1-20.2-18.3-31.8-26.1-65-43.9a488.1 488.1 0 01-27-15.5 130 130 0 01-30.4-31 162.7 162.7 0 01-17.6-36.3l-2.2-7.7h-7.8l.1 6.5c.6 25.6 17.1 55.7 41.1 75.2a226.1 226.1 0 0038.8 24.8c31.1 17.4 43.4 26.2 62.9 45 71.7 69.1 97.7 175.1 68 276.5-10.3 35.2-30.5 75.8-57.8 116.3-16.9 25.1-23.6 34.1-79.4 106.2-42.9 55.3-67.1 91.8-85.5 128.6-18.9 37.7-25.9 59.7-41.2 129.4-11.5 52.2-15.2 65.5-21.7 78.3-10.4 20.1-25.3 26.9-41.8 18.9a68 68 0 01-22.4-19c-6.2-8.2-6.8-9.6-5.5-12.6 1-2 .9-3-.5-5.1-2.6-3.9-5.9-3.2-16.2 3.5-12.1 7.9-17.5 10.1-25.5 10.7-12.4 1-23.1-4.6-27.6-14.4-2.3-4.9-2.5-6.4-2.1-14.1.6-11.7 3.9-19.7 18-44.2 25-43.6 30.4-53.5 42.2-77 23.1-46.2 36.2-83.4 42.6-120.6 3.8-22.4 4.1-32.3 3.4-90.9-.5-47.4-.4-58.8 1-74 3-33.8 7.1-56.3 17-94 3.5-13.2 7.1-28.3 8.1-33.5 1-5.2 2.5-10.3 3.4-11.4a227 227 0 0135-22.3c15-8.3 16.9-10.1 14.7-14.4-1.5-3.1-4.7-3.4-14.2-1.5-20.9 4.3-43.3 18.4-66.4 41.6-20.5 20.7-33.6 39.1-66.9 94.6-20.3 33.7-31.4 50.2-45.1 66.5-28.3 33.8-86.8 79.2-130.3 101.1-49.6 24.9-115 33.3-187.7 24.2-130.6-16.3-246.1-93.6-307-205.4-8-14.8-17.4-34.9-30.1-64.6-22.4-52.6-35.3-75.2-55-95.8-8.5-9-20.7-18.6-23.7-18.6-2.2 0-5.2 3.4-5.2 6 0 .9 3.4 5.4 7.5 9.9 22.9 25.3 36.8 49.9 63.5 112.6 7.8 18.1 17.9 40.5 22.4 49.6l8.3 16.7-2.8 8.4c-7 20.7-11.3 73.4-9 108.1 3.2 47.4 8.8 73.1 32 145.4 17.4 54.7 23.2 82.2 23.3 111.8 0 17.2-1.1 25.4-5.3 37.9-6.9 20.7-19.4 33.5-36.8 37.6-12.2 2.9-27-1.2-48.4-13.4-13.5-7.7-13.8-7.8-16.3-6.1-2 1.3-2.4 2.2-1.9 4.4.5 2.5 0 3.4-3.9 6.8-13.4 11.8-32.2 6.9-41.1-10.7-6.4-12.6-7.3-28.7-3.4-60.5 2.1-16.9 2.4-23.2 2.4-58 0-30.9-.4-42.4-1.8-55.5a585.4 585.4 0 00-25.7-119c-14.5-43.8-27.7-72-66.5-142.5-36.7-66.7-51.1-97.3-63.3-134.5-23.5-71.8-22.4-132.8 3.1-183.6a219.8 219.8 0 0143.3-57.1c28.6-26.1 56.8-40.8 107-55.7l11.1-3.3 1.8 3.1c5.7 9.8 20 30.8 21.6 31.7 1.4.7 2.3.5 3.8-1 1.7-1.7 1.8-2.5 1-4.9-2-5.7-25-50.3-39.3-76.2-40.4-72.9-49-97.1-51.6-145.5-.8-15.9-.4-98.1.5-101.2.2-.6 4.6 3 9.7 8a178.8 178.8 0 0082.8 47.1A341 341 0 00446.7 722c36.7-2.5 64.8-9.5 94-23.5a188.4 188.4 0 0057.8-41.6c27.8-28.9 42.6-60.1 49.2-103.8 3.2-20.7 2.3-85.7-1.4-100.8l-.5-2.1 6.4 2c6.9 2.2 25.5 3 35.7 1.5l5.3-.8-.6 5.3c-2 16.1-2.6 27.8-2.6 50.3 0 35.5 2.9 57.8 10.6 81.2 22.1 67.8 83.5 116.1 164.1 129.2 43.1 7 91.6 3.6 139.8-10 47.2-13.2 81.7-39.2 110.5-83.1 22.3-34 41.5-83.6 49.6-128.3l1.8-10 14.5-.1a1184 1184 0 0086.6-6.5c29.9-2.8 65.6-4.7 62.7-3.3-.9.4-1.1 2-.7 5.2l2.5 26.7c2.7 28.2 5.2 48.6 10.1 81.2 6 40.1 8 59.5 8.6 84.8.6 25.7-.5 36.3-5.3 51.7a33.4 33.4 0 00-2.1 10.2c.4 1 1.8 1.6 3.7 1.6 3.5 0 4.4-1.7 10.5-19.1 8.3-24 11.3-47.4 9.5-74.1l-1.2-16.8 9.6-24.2a6417 6417 0 0019.7-50.8c19.2-50.5 37.6-92.9 45-103.6 9.7-14.2 19.8-16.7 35.4-9zM169.5 457a407.8 407.8 0 0033.2 128.1l4 8.6-3.1.9c-3.2.9-8.1 8.7-25 39.4a371 371 0 01-72.2 91.1 311.2 311.2 0 01-38.2 30.3c-18.7 11.4-35.8 12-44.5 1.7-7.5-9-6-16.9 9.8-51.1 8.3-17.8 73.5-161.6 81.5-179.5 14-31.5 23.4-49.7 33.3-64.4 5.6-8.3 19-23.9 19.3-22.5.2.5 1 8.3 1.9 17.4zm1186 28c9 6.2 12.6 15.5 14.4 37.5 1.2 13.1 2.4 19 5.3 25.1l2.1 4.5-3.8 12.2a1205.7 1205.7 0 00-11.4 38.6l-3.1-21.5a859 859 0 01-8-70.4l-2-27.3c0-2.4 1.5-2.1 6.5 1.3zM213 605.8c0 .4 2.9 5.6 6.5 11.6l6.5 10.9-.2 24.5-.3 24.6-5.3-8.7c-6-9.7-18.3-26.1-20.7-27.4-1.3-.7-.8-2.3 2.8-10.4a196 196 0 006.8-17.7c1.3-4.5 2.7-8.2 3.2-8.2.4 0 .7.4.7.8z"/>
    <path d="M651.6 252c-6.3.8-8.6 2.6-8.6 6.4.1 4.8 3.7 6.6 13.8 6.8 11.9.3 16.8-2.7 14.8-9-1.2-3.8-9.7-5.6-20-4.2zM616.7 272.8c-2.1 2.3-2.1 4.5-.2 8.1 4.6 9 19.7 13.3 24.7 7.1 4.2-5.2 1.2-9.3-7.8-10.5-3.9-.5-5.9-1.4-8-3.6-3.2-3.3-6.4-3.7-8.7-1.1zM1174.2 281.7c-3.8 3.3-3.3 6.8 1.9 12.7 7.5 8.5 16.5 11.1 21.4 6.1 4.6-4.5 2.4-8.4-7.1-12.5a29 29 0 01-8-5.1c-3.2-3.3-5.3-3.6-8.2-1.2zM383.5 389.6a781.9 781.9 0 00-85.2 10.5c-36.5 7.9-56.2 24.5-64.5 54.5-1.9 6.9-2.2 10.3-2.2 27.4 0 17.5.3 20.8 2.8 32a358.7 358.7 0 0018.2 55.4c22.9 52.3 68 89.1 127.3 104.1 29.7 7.4 65.9 7.6 94.6.4 58.6-14.8 107-61.6 126.3-122a282 282 0 008.8-43.6c2-13.4 1.5-43.5-1-54.3-6.3-27.8-19.3-41.2-46.8-48.5-19.9-5.2-55.1-11-85.8-14.1-14.8-1.4-78.3-2.7-92.5-1.8zM887.5 389.6A665 665 0 00780.2 405c-32.1 8.1-45.6 23.7-50.2 58a197 197 0 002.5 60.5c1 8.9 6.9 30.8 11 41a188.4 188.4 0 0044.7 66c27 25.9 59.6 41.8 96.3 47 14.6 2.1 40.8 2.1 55 0 53-7.7 100.5-35.4 128.8-74.8A242 242 0 001103 524c4.8-18.8 5.5-24.6 5.5-42.5 0-20.2-1.4-27.1-8.2-41.5-3.8-8-5.9-10.8-12.7-17.5-15.3-15.3-32.9-21.5-77.1-27.5a538.3 538.3 0 00-81.5-5.4c-19.5-.2-38.2-.2-41.5 0zM209.2 403.7c-6.1 1.8-8.2 4.6-6.3 8.2 1.3 2.4 4 2.6 10.9 1 7.6-1.9 10.3-5.7 6.6-9.3-1.9-1.9-4.3-1.9-11.2.1zM224.9 416.9c-4.5 2.4-5.5 3.3-5.7 5.9-.4 4.4 2.1 5.5 9 4.1 2.9-.6 6.1-1.8 7.1-2.7 2-1.8 2.2-5.2.5-7.4-2.4-3-5.2-3-10.9.1zM719.8 423.7c-2.5 2.9-3 5.9-1.4 9.7 2 4.7 6.1 5.9 8.8 2.6 1.1-1.4 1.6-3 1.2-3.9-.4-.9-.9-3-1.1-4.6-.8-5-4.7-7-7.5-3.8zM196.8 427.1c-8 3.6-7.1 8.9 1.5 8.9 6.6 0 11.7-2.8 11.7-6.5 0-4.7-5.6-5.7-13.2-2.4zM710.6 451.2c-3.7 5.3-.8 13.1 4.6 12.6 4.7-.5 5.5-2.6 3.4-9.2-1.5-4.7-2.2-5.6-4.1-5.6-1.3 0-3.1 1-3.9 2.2zM551.4 649.6c-5.7 3.8-10.4 8.5-10.4 10.5 0 .9.7 2.2 1.5 2.9 2.2 1.8 14.6-3.1 18-7.2 3-3.5 3.1-4.9.7-7.1-2.6-2.4-5.3-2.1-9.8.9zM1022.8 656.7c-.9 1-2.3 3.1-3.1 4.8-.9 1.6-3.6 5-6.1 7.4-4.8 4.5-5.5 6.1-3.3 7.9 7.2 6 21.7-4.8 21.7-16.2 0-2.5-.6-3.8-1.9-4.6-2.9-1.5-5.6-1.2-7.3.7zM1286.3 422.1c-2 2.1-1.5 5.7 1 7.3 4.4 2.8 13.5 5 16.5 4 4.5-1.6 4.3-8.1-.5-10.3-4.2-1.9-15.5-2.6-17-1zM1265.6 435.3c-10.3 3.1-5.2 10.4 7.5 10.6 5.1.1 7.9-1.9 7.9-5.7 0-5.5-6.5-7.5-15.4-4.9zM1397.8 713.2c-3.2 1.1-4.5 4.6-5.4 14.9-.5 5-.3 7.2 1 9.7 3.1 5.9 7.3 6.7 11.8 2.1l3.1-3-.6-8.9c-.8-13-3.5-17-9.9-14.8zM317 774c-2.9 2.9-2.5 6.3 1.7 16.4 4.1 9.7 9.5 16.6 13.2 16.6 5.7 0 8.8-4.7 7.1-10.9-1-3.9-11.4-22.1-13.3-23.3-2.2-1.4-6.7-.8-8.7 1.2zM299.4 811c-3.9 1.5-4.6 3.4-3.5 9.4 2 10.9 7.5 17.5 14.7 17.6 4.2 0 7.8-3.9 7.8-8.7 0-2.9-.7-4.1-3.7-6.6a38.4 38.4 0 01-6.7-7.2c-3.1-4.5-5.3-5.7-8.6-4.5zM341.5 832c-2.5 2.8-1.6 7.8 3.4 18 4.8 9.7 6.1 11 11.1 11 3.8 0 6.3-1.8 7.4-5.5.7-2.3-3.3-11.4-8.8-19.9-3.3-5.2-3.8-5.6-7.4-5.6-2.6 0-4.5.7-5.7 2zM1006.5 983.9a55.5 55.5 0 00-14 15c-.8 2.7 1.5 6.7 4.5 7.6 2.4.7 10.5-3.7 17-9.3 7.7-6.5 7.3-15.2-.8-15.2-2 0-5 .8-6.7 1.9zM1027.3 1016a50.7 50.7 0 00-16.4 14.6c-2.8 4.7-2.3 9.5 1.4 11.2 3.6 1.8 6 .9 10.5-4a67 67 0 019.2-7.8c9-6.1 10.6-9.5 6.6-13.5-3-3-5.7-3.1-11.3-.5zM153.6 1160.6c-2.1 2-2.1 13.2-.1 18.1 1.8 4.3 4.1 6.2 7.6 6.3 3.9 0 5.3-2.2 4.4-7.3l-1.4-9.8c-.3-3.1-1.3-6.4-2-7.3-1.7-2-6.5-2.1-8.5 0zM511.5 1293.4c-1.4 2-1.4 3.1-.5 6.8 3.7 13.5 12.2 20.9 18.8 16.2 3.4-2.3 2.7-5.9-2.2-12.2a61.1 61.1 0 01-6-9.5c-1.3-3.3-1.9-3.7-5-3.7-2.7 0-4 .6-5.1 2.4zM1338.7 1458.8c-3.6 3.9-5.9 15-4.1 19.6.9 2.3 4.6 2 7.3-.5a32 32 0 007.1-15c0-5.2-6.9-7.9-10.3-4.1zM1302.5 1474.1a33 33 0 00-8.2 19.1c-.6 6.2.5 8.8 3.7 8.8 2.9 0 11.4-8.5 14.7-14.7 6.1-11.4 5.2-17.3-2.7-17.3-3.1 0-4.4.7-7.5 4.1zM1316.7 1503a40 40 0 00-9.4 19.1c-.7 4.7 1.6 7.9 5.6 7.9 3.7 0 4.7-.9 7-6.2a78 78 0 015.5-10c5.7-8.4 4.5-13.8-2.8-13.8-1.4 0-4.1 1.3-5.9 3zM371.2 1744.7c-2 .8-4.2 5.9-4.2 9.6 0 4.6 2.4 11.3 5.6 15.4 2.9 3.9 7.1 4.4 9.9 1.3 1.6-1.8 1.6-2.2.1-6.6a30 30 0 01-1.6-7.8c0-9.2-4.2-14.2-9.8-11.9zM396.7 1756.8c-2 2.1-3.5 9.7-3.9 18.3-.3 6.8 1.2 8.9 6.2 8.9 4 0 5.7-2.7 6.9-10.7 1.6-10.5 1.4-14.7-.7-16.6-2.4-2.2-6.5-2.1-8.5.1zM1103.2 1805.6c-2.4 1.6-5.5 7.1-7.8 13.6-1.3 3.7-1.2 4.1 1.1 6.4 4.4 4.4 7.7 2.9 12-5.5 3.6-7.3 4.1-11.5 1.6-14-2.5-2.5-3.9-2.6-6.9-.5zM126.2 569.5a42 42 0 00-10.3 16c-.9 3-.7 4 .7 5.6 5.5 6 17.2-4.1 18.2-15.7.7-8.4-2.8-10.8-8.6-5.9z"/>
</svg>
